<svg width="87" height="16" viewBox="0 0 87 16" fill="none" xmlns="http://www.w3.org/2000/svg">
<path d="M2.002 9.91985H0.065C0.065 11.0552 0.381333 11.8872 1.014 12.4159C1.65533 12.9445 2.626 13.2089 3.926 13.2089C4.368 13.2089 4.81433 13.1525 5.265 13.0399C5.71567 12.9359 6.11867 12.7625 6.474 12.5199C6.838 12.2772 7.13267 11.9609 7.358 11.5709C7.592 11.1809 7.709 10.7085 7.709 10.1539C7.709 9.73785 7.64833 9.38685 7.527 9.10085C7.40567 8.81485 7.23233 8.57219 7.007 8.37285C6.79033 8.17352 6.53033 8.01319 6.227 7.89185C5.92367 7.76185 5.59 7.64919 5.226 7.55385C5.07 7.51919 4.86633 7.47585 4.615 7.42385C4.36367 7.36319 4.11667 7.28519 3.874 7.18985C3.64 7.08585 3.43633 6.96019 3.263 6.81285C3.09833 6.65685 3.016 6.46619 3.016 6.24085C3.016 6.02419 3.06367 5.84219 3.159 5.69485C3.25433 5.54752 3.38 5.43052 3.536 5.34385C3.692 5.24852 3.86533 5.18352 4.056 5.14885C4.25533 5.10552 4.45033 5.08385 4.641 5.08385C4.875 5.08385 5.096 5.10985 5.304 5.16185C5.512 5.20519 5.68967 5.28319 5.837 5.39585C5.993 5.50852 6.11 5.65585 6.188 5.83785C6.27467 6.01119 6.31367 6.22785 6.305 6.48785H8.242C8.242 5.95052 8.14667 5.49552 7.956 5.12285C7.774 4.74152 7.52267 4.42952 7.202 4.18685C6.89 3.94419 6.52167 3.77085 6.097 3.66685C5.681 3.55419 5.23467 3.49785 4.758 3.49785C4.30733 3.49785 3.861 3.55419 3.419 3.66685C2.98567 3.77085 2.59567 3.93985 2.249 4.17385C1.90233 4.39919 1.62067 4.69385 1.404 5.05785C1.18733 5.42185 1.079 5.86385 1.079 6.38385C1.079 6.78252 1.144 7.12052 1.274 7.39785C1.41267 7.67519 1.59033 7.90919 1.807 8.09985C2.03233 8.29052 2.28367 8.44652 2.561 8.56785C2.83833 8.68919 3.12433 8.79319 3.419 8.87985C3.705 8.96652 3.98667 9.04885 4.264 9.12685C4.55 9.20485 4.80133 9.29585 5.018 9.39985C5.24333 9.50385 5.42533 9.62952 5.564 9.77685C5.70267 9.91552 5.772 10.0975 5.772 10.3229C5.772 10.5569 5.71567 10.7562 5.603 10.9209C5.499 11.0855 5.36033 11.2199 5.187 11.3239C5.02233 11.4279 4.836 11.5059 4.628 11.5579C4.42 11.6099 4.212 11.6359 4.004 11.6359C3.70933 11.6359 3.43633 11.6099 3.185 11.5579C2.93367 11.4972 2.717 11.4019 2.535 11.2719C2.353 11.1419 2.21433 10.9685 2.119 10.7519C2.02367 10.5265 1.98467 10.2492 2.002 9.91985ZM12.0437 5.43485L10.4577 13.0009H12.5117L14.0977 5.43485H16.8797L17.2437 3.71885H9.49569L9.13169 5.43485H12.0437ZM18.275 3.71885L16.338 13.0009H23.488L23.852 11.2849H18.73L19.211 9.00985H23.878L24.216 7.42385H19.549L19.965 5.43485H25.009L25.36 3.71885H18.275ZM26.9329 3.71885L25.0089 13.0009H27.0369L27.7389 9.67285H30.2609C30.7462 9.67285 31.2055 9.59919 31.6389 9.45185C32.0722 9.30452 32.4535 9.09219 32.7829 8.81485C33.1209 8.53752 33.3852 8.19952 33.5759 7.80085C33.7752 7.39352 33.8749 6.93419 33.8749 6.42285C33.8749 5.91152 33.7925 5.48252 33.6279 5.13585C33.4719 4.78919 33.2509 4.51185 32.9649 4.30385C32.6789 4.09585 32.3365 3.94852 31.9379 3.86185C31.5479 3.76652 31.1189 3.71885 30.6509 3.71885H26.9329ZM28.0769 8.08685L28.6489 5.30485H30.3909C30.5729 5.30485 30.7462 5.32219 30.9109 5.35685C31.0842 5.39152 31.2402 5.45219 31.3789 5.53885C31.5175 5.61685 31.6259 5.73385 31.7039 5.88985C31.7905 6.03719 31.8339 6.22785 31.8339 6.46185C31.8339 7.01652 31.6822 7.42819 31.3789 7.69685C31.0842 7.95685 30.6769 8.08685 30.1569 8.08685H28.0769Z" fill="black"/>
<path d="M52.002 9.91924H50.065C50.065 11.0546 50.3813 11.8866 51.014 12.4152C51.6553 12.9439 52.626 13.2082 53.926 13.2082C54.368 13.2082 54.8143 13.1519 55.265 13.0392C55.7157 12.9352 56.1187 12.7619 56.474 12.5192C56.838 12.2766 57.1327 11.9602 57.358 11.5702C57.592 11.1802 57.709 10.7079 57.709 10.1532C57.709 9.73724 57.6483 9.38624 57.527 9.10024C57.4057 8.81424 57.2323 8.57158 57.007 8.37224C56.7903 8.17291 56.5303 8.01258 56.227 7.89124C55.9237 7.76124 55.59 7.64858 55.226 7.55324C55.07 7.51858 54.8663 7.47524 54.615 7.42324C54.3637 7.36258 54.1167 7.28458 53.874 7.18924C53.64 7.08524 53.4363 6.95958 53.263 6.81224C53.0983 6.65624 53.016 6.46558 53.016 6.24024C53.016 6.02358 53.0637 5.84158 53.159 5.69424C53.2543 5.54691 53.38 5.42991 53.536 5.34324C53.692 5.24791 53.8653 5.18291 54.056 5.14824C54.2553 5.10491 54.4503 5.08324 54.641 5.08324C54.875 5.08324 55.096 5.10924 55.304 5.16124C55.512 5.20458 55.6897 5.28258 55.837 5.39524C55.993 5.50791 56.11 5.65524 56.188 5.83724C56.2747 6.01058 56.3137 6.22724 56.305 6.48724H58.242C58.242 5.94991 58.1467 5.49491 57.956 5.12224C57.774 4.74091 57.5227 4.42891 57.202 4.18624C56.89 3.94358 56.5217 3.77024 56.097 3.66624C55.681 3.55358 55.2347 3.49724 54.758 3.49724C54.3073 3.49724 53.861 3.55358 53.419 3.66624C52.9857 3.77024 52.5957 3.93924 52.249 4.17324C51.9023 4.39858 51.6207 4.69324 51.404 5.05724C51.1873 5.42124 51.079 5.86324 51.079 6.38324C51.079 6.78191 51.144 7.11991 51.274 7.39724C51.4127 7.67458 51.5903 7.90858 51.807 8.09924C52.0323 8.28991 52.2837 8.44591 52.561 8.56724C52.8383 8.68858 53.1243 8.79258 53.419 8.87924C53.705 8.96591 53.9867 9.04824 54.264 9.12624C54.55 9.20424 54.8013 9.29524 55.018 9.39924C55.2433 9.50324 55.4253 9.62891 55.564 9.77624C55.7027 9.91491 55.772 10.0969 55.772 10.3222C55.772 10.5562 55.7157 10.7556 55.603 10.9202C55.499 11.0849 55.3603 11.2192 55.187 11.3232C55.0223 11.4272 54.836 11.5052 54.628 11.5572C54.42 11.6092 54.212 11.6352 54.004 11.6352C53.7093 11.6352 53.4363 11.6092 53.185 11.5572C52.9337 11.4966 52.717 11.4012 52.535 11.2712C52.353 11.1412 52.2143 10.9679 52.119 10.7512C52.0237 10.5259 51.9847 10.2486 52.002 9.91924ZM65.6577 6.94224H67.6987C67.7074 6.37891 67.6207 5.88491 67.4387 5.46024C67.2567 5.02691 66.9967 4.66724 66.6587 4.38124C66.3294 4.08658 65.935 3.86558 65.4757 3.71824C65.0164 3.57091 64.518 3.49724 63.9807 3.49724C63.2007 3.49724 62.4944 3.64891 61.8617 3.95224C61.2377 4.25558 60.7047 4.66724 60.2627 5.18724C59.8294 5.69858 59.4957 6.29224 59.2617 6.96824C59.0277 7.64424 58.9107 8.35924 58.9107 9.11324C58.9107 10.4392 59.266 11.4532 59.9767 12.1552C60.696 12.8572 61.7144 13.2082 63.0317 13.2082C63.5344 13.2082 63.998 13.1432 64.4227 13.0132C64.856 12.8919 65.246 12.6926 65.5927 12.4152C65.948 12.1292 66.2644 11.7609 66.5417 11.3102C66.8277 10.8596 67.0747 10.3092 67.2827 9.65924H65.2417C65.1984 9.90191 65.1117 10.1359 64.9817 10.3612C64.8517 10.5866 64.6914 10.7859 64.5007 10.9592C64.31 11.1239 64.089 11.2582 63.8377 11.3622C63.595 11.4576 63.335 11.5052 63.0577 11.5052C62.685 11.5052 62.3644 11.4402 62.0957 11.3102C61.8357 11.1802 61.619 11.0069 61.4457 10.7902C61.281 10.5649 61.1554 10.3092 61.0687 10.0232C60.9907 9.73724 60.9517 9.43391 60.9517 9.11324C60.9517 8.67124 61.0124 8.22058 61.1337 7.76124C61.255 7.29324 61.437 6.87291 61.6797 6.50024C61.931 6.11891 62.2474 5.81124 62.6287 5.57724C63.0187 5.33458 63.4737 5.21324 63.9937 5.21324C64.4877 5.21324 64.8864 5.36058 65.1897 5.65524C65.5017 5.94124 65.6577 6.37024 65.6577 6.94224ZM72.5504 3.71824L67.0774 13.0002H69.2224L70.3924 10.9332H73.8634L74.1624 13.0002H76.1904L74.6434 3.71824H72.5504ZM71.1984 9.41224L73.2004 5.72024H73.2264L73.6814 9.41224H71.1984ZM78.8758 3.71824L76.9258 13.0002H78.8238L80.1498 6.48724H80.1758L82.7238 13.0002H84.7648L86.7278 3.71824H84.8558L83.5298 10.3222H83.5038L80.9818 3.71824H78.8758Z" fill="black"/>
<g clip-path="url(#clip0_203_107)">
<path d="M41.0391 3.96094C38.9268 3.96094 37.2012 5.68945 37.2012 7.79883C37.2012 9.91113 38.9268 11.6396 41.0391 11.6396C43.1514 11.6396 44.8799 9.91113 44.8799 7.79883C44.8799 5.68945 43.1514 3.96094 41.0391 3.96094Z" stroke="black" stroke-width="1.5" stroke-miterlimit="10" stroke-linecap="round"/>
<path d="M43.7285 10.7285L46.9189 13.9189" stroke="black" stroke-width="1.8" stroke-miterlimit="10"/>
</g>
<defs>
<clipPath id="clip0_203_107">
<rect width="12" height="12" fill="white" transform="translate(36 3)"/>
</clipPath>
</defs>
</svg>