<svg height="28" width="50" xmlns="http://www.w3.org/2000/svg" xmlns:xlink="http://www.w3.org/1999/xlink">
    <linearGradient id="a" x1="0%" y1="0%" y2="0%"><stop offset="0" stop-color="#7e49c2"/><stop offset=".5" stop-color="#c4aaea"/>
        <stop offset="1" stop-color="#7e49c2"/>
    </linearGradient>
    <filter id="b">
        <feOffset dy="1" in="SourceAlpha"/>
        <feGaussianBlur result="blurOut"/>
        <feFlood flood-color="#f6f6f6" result="floodOut"/>
        <feComposite in="floodOut" in2="blurOut" operator="out" result="compOut"/>
        <feComposite in="compOut" in2="SourceAlpha" operator="in"/>
        <feComponentTransfer>
            <feFuncA slope=".25" type="linear"/>
        </feComponentTransfer>
        <feBlend in2="SourceGraphic"/>
    </filter>
    <filter id="c">
        <feOffset in="SourceAlpha"/>
        <feGaussianBlur result="blurOut" stdDeviation="2.236"/>
        <feFlood flood-color="#35b080" result="floodOut"/>
        <feComposite in="floodOut" in2="blurOut" operator="out" result="compOut"/>
        <feComposite in="compOut" in2="SourceAlpha" operator="in"/>
        <feComponentTransfer>
            <feFuncA type="linear"/>
        </feComponentTransfer>
        <feBlend in2="SourceGraphic"/>
    </filter>
    <filter id="d">
        <feOffset dy="1" in="SourceAlpha"/>
        <feGaussianBlur result="blurOut"/>
        <feFlood flood-color="#f6f6f6" result="floodOut"/>
        <feComposite in="floodOut" in2="blurOut" operator="out" result="compOut"/>
        <feComposite in="compOut" in2="SourceAlpha" operator="in"/>
        <feComponentTransfer>
            <feFuncA slope=".25" type="linear"/>
        </feComponentTransfer>
        <feBlend in2="SourceGraphic"/>
    </filter>
    <filter id="e">
        <feOffset in="SourceAlpha"/>
        <feGaussianBlur result="blurOut" stdDeviation="2.236"/>
        <feFlood flood-color="#35b080" result="floodOut"/>
        <feComposite in="floodOut" in2="blurOut" operator="out" result="compOut"/>
        <feComposite in="compOut" in2="SourceAlpha" operator="in"/>
        <feComponentTransfer>
            <feFuncA type="linear"/>
        </feComponentTransfer>
        <feBlend in2="SourceGraphic"/>
    </filter>
    <path d="m30.285 1.252c-1.758 0-2.069.563-3.882 1.045.706-1.36 2.099-2.297 3.722-2.297 1.539 0 2.871.842 3.608 2.086-.913-.485-2.05-.834-3.448-.834zm-22.081 1.008c.712-1.339 2.093-2.26 3.702-2.26 1.595 0 2.967.906 3.684 2.226-1.596-.464-1.952-.974-3.626-.974-1.562 0-2.798.435-3.76 1.008z" fill="#8957c8" fill-rule="evenodd"/>
    <path d="m30.285 1.252c-1.758 0-2.069.563-3.882 1.045.706-1.36 2.099-2.297 3.722-2.297 1.539 0 2.871.842 3.608 2.086-.913-.485-2.05-.834-3.448-.834zm-22.081 1.008c.712-1.339 2.093-2.26 3.702-2.26 1.595 0 2.967.906 3.684 2.226-1.596-.464-1.952-.974-3.626-.974-1.562 0-2.798.435-3.76 1.008z" fill="url(#a)"/>
    <path d="m38.029 13.695c-1.181-1.933-3.289-3.226-5.701-3.226-3.376 0-6.161 2.527-6.627 5.812l-4.674.98v-.027l-4.702-.984c-.48-3.27-3.264-5.781-6.638-5.781-2.405 0-4.51 1.28-5.697 3.199l-2.029-.425 3.472-7.309s1.804-3.83 6.462-3.83c2.416 0 2.076 1.063 6.728 1.51 0 2.421 2.404 2.535 2.404 2.535v.008s2.403-.115 2.403-2.54c4.653-.448 4.312-1.513 6.729-1.513 4.658 0 6.462 3.836 6.462 3.836l3.471 7.323zm-16.982-1.508c-.941 0-1.703.77-1.703 1.719s.762 1.719 1.703 1.719c.94 0 1.703-.77 1.703-1.719s-.763-1.719-1.703-1.719z" fill="#704ad5" fill-rule="evenodd"/>
    <path d="m38.029 13.695c-1.181-1.933-3.289-3.226-5.701-3.226-3.376 0-6.161 2.527-6.627 5.812l-4.674.98v-.027l-4.702-.984c-.48-3.27-3.264-5.781-6.638-5.781-2.405 0-4.51 1.28-5.697 3.199l-2.029-.425 3.472-7.309s1.804-3.83 6.462-3.83c2.416 0 2.076 1.063 6.728 1.51 0 2.421 2.404 2.535 2.404 2.535v.008s2.403-.115 2.403-2.54c4.653-.448 4.312-1.513 6.729-1.513 4.658 0 6.462 3.836 6.462 3.836l3.471 7.323zm-16.982-1.508c-.941 0-1.703.77-1.703 1.719s.762 1.719 1.703 1.719c.94 0 1.703-.77 1.703-1.719s-.763-1.719-1.703-1.719z" fill="url(#a)"/>
    <g fill-rule="evenodd">
        <path d="m23.964 18.124s-1.477-.215-2.937-.215c-1.477 0-2.938.215-2.938.215l-2.67-7.443s2.8-.486 5.608-.486c2.799 0 5.607.486 5.607.486zm-2.917-5.937c-.941 0-1.703.77-1.703 1.719s.762 1.719 1.703 1.719c.94 0 1.703-.77 1.703-1.719s-.763-1.719-1.703-1.719z" fill="#a47ed8"/>
        <path d="m21.031 16.406c-1.346 0-2.437-1.112-2.437-2.484s1.091-2.484 2.437-2.484 2.438 1.112 2.438 2.484-1.092 2.484-2.438 2.484zm.016-4.219c-.941 0-1.703.77-1.703 1.719s.762 1.719 1.703 1.719c.94 0 1.703-.77 1.703-1.719s-.763-1.719-1.703-1.719z" fill="#b89ae3"/>
        <path d="m16.327 4.531v4.801h9.399v-4.801l-1.228.27s-.976 2.481-3.471 2.481c-2.496 0-3.472-2.481-3.472-2.481z" fill="#9d74d4"/>
        <path d="m32.328 26c-4.789 0-8.672-3.925-8.672-8.766s3.883-8.765 8.672-8.765 8.672 3.924 8.672 8.765-3.883 8.766-8.672 8.766zm0-15.531c-3.702 0-6.703 3.036-6.703 6.781s3.001 6.781 6.703 6.781 6.703-3.036 6.703-6.781-3.001-6.781-6.703-6.781z" fill="#8958c8" filter="url(#b)"/>
        <path d="m32.328 22.125c-2.666 0-4.828-2.183-4.828-4.875 0-.608.124-1.184.325-1.721.235.299.581.502.987.502a1.29 1.29 0 0 0 1.282-1.297c0-.56-.356-1.027-.848-1.208.838-.708 1.904-1.151 3.082-1.151 2.667 0 4.828 2.183 4.828 4.875s-2.161 4.875-4.828 4.875zm0-5.781a.89.89 0 1 0 -.001 1.78.89.89 0 0 0 .001-1.78z" fill="#80d6a1" filter="url(#c)"/>
        <path d="m9.672 26c-4.789 0-8.672-3.925-8.672-8.766s3.883-8.765 8.672-8.765 8.672 3.924 8.672 8.765-3.883 8.766-8.672 8.766zm.015-15.531c-3.71 0-6.718 3.036-6.718 6.781s3.008 6.781 6.718 6.781c3.711 0 6.719-3.036 6.719-6.781s-3.008-6.781-6.719-6.781z" fill="#8958c8" filter="url(#d)"/>
        <path d="m9.687 22.125c-2.675 0-4.843-2.183-4.843-4.875 0-.619.126-1.207.335-1.752.234.316.589.533 1.008.533a1.29 1.29 0 0 0 .414-2.509c.84-.706 1.907-1.147 3.086-1.147 2.676 0 4.844 2.183 4.844 4.875s-2.168 4.875-4.844 4.875zm0-5.781a.882.882 0 0 0 -.875.89c0 .492.392.891.875.891a.883.883 0 0 0 .875-.891.882.882 0 0 0 -.875-.89z" fill="#80d6a1" filter="url(#e)"/>
    </g>
</svg>
