<svg width="17" height="17" viewBox="0 0 17 17" fill="none" xmlns="http://www.w3.org/2000/svg">
    <path d="M8.49972 1.01978C4.3683 1.01978 1.01953 4.36855 1.01953 8.49996C1.01953 12.6314 4.3683 15.9802 8.49972 15.9802C12.6311 15.9802 15.9799 12.6314 15.9799 8.49996C15.9799 4.36855 12.6311 1.01978 8.49972 1.01978Z" stroke="black" stroke-miterlimit="10" stroke-linecap="round"/>
    <path d="M8.4993 3.73999C7.93604 3.73999 7.47949 4.19653 7.47949 4.7598C7.47949 5.32307 7.93604 5.77961 8.4993 5.77961C9.06257 5.77961 9.51911 5.32307 9.51911 4.7598C9.51911 4.19653 9.06257 3.73999 8.4993 3.73999ZM7.81982 7H9.17878V12.9195H7.81982V7Z" fill="black"/>
    <path d="M7.5 7.5H8.52051M7.47949 12.5805H9.51911" stroke="black" stroke-miterlimit="10" stroke-linecap="square"/>
</svg>